{"title":"The Descent 2005 DVDRip Xvid BigPerm LKRG","uid":6361840,"size":1140162134,"categoryP":"video","categoryS":"movies","magnet":"?xt=urn:btih:bb76687097b3bc1e3b605e83333b0273ce351d9f&amp;dn=The+Descent+2005+DVDRip+Xvid+BigPerm+LKRG&amp;tr=udp%3A%2F%2Ftracker.openbittorrent.com%3A80&amp;tr=udp%3A%2F%2Fopen.demonii.com%3A1337&amp;tr=udp%3A%2F%2Ftracker.coppersurfer.tk%3A6969&amp;tr=udp%3A%2F%2Fexodus.desync.com%3A6969","seeders":0,"leechers":1,"uploader":".BONE.","files":2,"time":1304358500,"description":"PLOT\n\nA caving expedition goes horribly wrong, as the explorers become trapped and ultimately\npursued by a strange breed of predators.\n &lt;a href=&quot;\nhttp://www.imdb.com/title/tt0435625/&quot; rel=&quot;nofollow&quot; target=&quot;_NEW&quot;&gt;\nhttp://www.imdb.com/title/tt0435625/&lt;/a&gt;\n\nEncoded By .......: BigPerm1828\nRuntime ..........: 1h 39mn\nFile Size ........: 1.06 GiB\nResolution .......: 704x396\nIMDb URL .........: http://www.imdb.com/title/tt0435625/\nLanguage .........: English\nVideo\nID : 0\nFormat : MPEG-4 Visual\nFormat profile : Advanced Simple@L5\nFormat settings, BVOP : Yes\nFormat settings, QPel : No\nFormat settings, GMC : No warppoints\nFormat settings, Matrix : Default (H.263)\nCodec ID : XVID\nCodec ID/Hint : XviD\nDuration : 1h 39mn\nBit rate : 60.3 Kbps\nWidth : 704 pixels\nHeight : 396 pixels\nDisplay aspect ratio : 16:9\nFrame rate : 29.970 fps\nColor space : YUV\nChroma subsampling : 4:2:0\nBit depth : 8 bits\nScan type : Progressive\nCompression mode : Lossy\nBits/(Pixel*Frame) : 0.007\nStream size : 43.0 MiB (4%)\nWriting library : XviD 1.2.1 (UTC 2008-12-04)\n\nAudio\nID : 1\nFormat : AC-3\nFormat/Info : Audio Coding 3\nCodec ID : 2000\nDuration : 1h 39mn\nBit rate mode : Constant\nBit rate : 448 Kbps\nChannel(s) : 6 channels\nSampling rate : 48.0 KHz\nBit depth : 16 bits\nCompression mode : Lossy\nStream size : 320 MiB (29%)\nAlignment : Aligned on interleaves\n &lt;a href=&quot;\nhttp://leetleech.org/images/38271444928154416466.png&quot; rel=&quot;nofollow&quot; target=&quot;_NEW&quot;&gt;\nhttp://leetleech.org/images/38271444928154416466.png&lt;/a&gt;\n &lt;a href=&quot;\nhttp://leetleech.org/images/75633469436245652744.png&quot; rel=&quot;nofollow&quot; target=&quot;_NEW&quot;&gt;\nhttp://leetleech.org/images/75633469436245652744.png&lt;/a&gt;\n &lt;a href=&quot;\nhttp://leetleech.org/images/37310810546086544577.png&quot; rel=&quot;nofollow&quot; target=&quot;_NEW&quot;&gt;\nhttp://leetleech.org/images/37310810546086544577.png&lt;/a&gt;\n &lt;a href=&quot;\nhttp://leetleech.org/images/11850592778004550367.png&quot; rel=&quot;nofollow&quot; target=&quot;_NEW&quot;&gt;\nhttp://leetleech.org/images/11850592778004550367.png&lt;/a&gt;","torrent":{"xt":"urn:btih:bb76687097b3bc1e3b605e83333b0273ce351d9f","amp;dn":"The+Descent+2005+DVDRip+Xvid+BigPerm+LKRG","amp;tr":["udp%3A%2F%2Ftracker.openbittorrent.com%3A80","udp%3A%2F%2Fopen.demonii.com%3A1337","udp%3A%2F%2Ftracker.coppersurfer.tk%3A6969","udp%3A%2F%2Fexodus.desync.com%3A6969"],"infoHash":"bb76687097b3bc1e3b605e83333b0273ce351d9f","infoHashBuffer":{"type":"Buffer","data":[187,118,104,112,151,179,188,30,59,96,94,131,51,59,2,115,206,53,29,159]},"announce":[],"urlList":[]}}